<mxfile host="app.diagrams.net" modified="2020-11-15T14:01:48.048Z" agent="5.0 (X11)" etag="05U0R52Ejvo9Ex62wlsM" version="13.9.8" type="github">
  <diagram id="egm5kP00KWQfCPJOZf8K" name="Page-1">
    <mxGraphModel dx="630" dy="488" grid="1" gridSize="10" guides="1" tooltips="1" connect="1" arrows="1" fold="1" page="1" pageScale="1" pageWidth="850" pageHeight="1100" math="0" shadow="0">
      <root>
        <mxCell id="0" />
        <mxCell id="1" parent="0" />
        <mxCell id="3w0EC6nWsMSB_sNc-7N_-1" value="" style="rounded=1;whiteSpace=wrap;html=1;" vertex="1" parent="1">
          <mxGeometry x="270" y="250" width="120" height="60" as="geometry" />
        </mxCell>
      </root>
    </mxGraphModel>
  </diagram>
</mxfile>
